<?xml version="1.0" encoding="iso-8859-1"?>
<!-- Generator: Adobe Illustrator 19.0.0, SVG Export Plug-In . SVG Version: 6.00 Build 0)  -->
<svg version="1.1" id="Capa_1" xmlns="http://www.w3.org/2000/svg" xmlns:xlink="http://www.w3.org/1999/xlink" x="0px" y="0px"
	 viewBox="0 0 512 512" style="enable-background:new 0 0 512 512;" xml:space="preserve">
<path style="fill:#46525E;" d="M256,0c-58.05,0-111.586,19.321-154.529,51.883C39.82,98.63,0,172.665,0,256
	c0,141.385,114.615,256,256,256s256-114.615,256-256S397.385,0,256,0z M256,297.207c-22.722,0-41.207-18.486-41.207-41.207
	c0-13.028,6.035-25.074,16.557-33.05c7.033-5.335,15.559-8.157,24.65-8.157c22.722,0,41.207,18.486,41.207,41.207
	S278.722,297.207,256,297.207z"/>
<path style="fill:#3E4954;" d="M419.922,59.373c-8.311,9.095-8.093,23.198,0.707,31.998
	c43.974,43.973,68.192,102.439,68.192,164.628s-24.217,120.655-68.192,164.629S318.189,488.821,256,488.821
	s-120.655-24.217-164.629-68.192c-8.801-8.8-22.902-9.018-31.998-0.707C106.332,476.19,176.98,512,256,512
	c141.385,0,256-114.615,256-256C512,176.98,476.19,106.332,419.922,59.373z"/>
<g>
	<path style="fill:#6C7A88;" d="M134.15,94.983c-76.65,58.105-98.859,157.634-64.17,239.548c70.451,166.248,303.28,162.255,372.04,0
		C517.104,157.261,325.541-10.163,161.16,77.655c-3.759,2.009-5.181,6.696-3.173,10.456c2.007,3.752,6.654,5.197,10.456,3.173
		C292.377,25.086,442.463,116.03,442.463,256c0,102.887-83.582,186.463-186.463,186.463c-49.717,0-96.518-19.419-131.781-54.682
		c-79.308-79.307-72.081-211.197,19.264-280.487c3.385-2.56,4.084-7.388,1.482-10.827C142.34,93.013,137.496,92.429,134.15,94.983z"
		/>
	<path style="fill:#6C7A88;" d="M162.161,131.925C265.044,53.941,411.557,128.815,411.557,256
		c0,85.833-69.731,155.557-155.557,155.557c-85.835,0-155.557-69.731-155.557-155.557c0.01-38.755,14.217-75.76,40.002-104.213
		c4.478-4.964,0.958-12.918-5.729-12.918c-2.173,0-4.265,0.927-5.728,2.534c-53.031,58.491-58.404,145.614-14.752,210.147
		C210.314,493.714,427.009,421.206,427.009,256c0-141.369-162.294-221.251-274.193-136.396c-3.36,2.553-4.102,7.379-1.483,10.827
		C153.915,133.842,158.731,134.496,162.161,131.925z"/>
	<path style="fill:#6C7A88;" d="M177.717,372.143c93.272,63.116,218.329-4.777,218.388-116.143
		c-0.054-100.251-103.638-169.286-196.497-128.34c-9.2,4.072-3.276,18.304,6.233,14.144
		c82.605-36.382,174.811,24.92,174.811,114.196c0,68.671-55.76,124.652-124.652,124.652c-33.234,0-64.52-12.98-88.102-36.551
		c-52.997-53.02-48.122-141.197,12.93-187.555c3.434-2.593,4.049-7.429,1.493-10.827c-2.653-3.488-7.517-4.009-10.827-1.483
		C94.661,202.406,98.137,318.316,177.717,372.143z"/>
	<path style="fill:#6C7A88;" d="M116.946,69.177c-3.395,2.547-4.135,7.368-1.556,10.807c2.623,3.523,7.514,4.049,10.807,1.566
		C267.153-23.78,473.379,75.671,473.379,256.165c0.011,119.19-97.188,217.224-217.543,217.224
		c-116.502,0-217.255-94.323-217.255-217.986c0.01-58.277,23.097-113.104,65.004-154.404c3.076-3.034,3.028-7.932,0.082-10.92
		c-3.023-3.065-7.909-3.063-10.92-0.093c0,0-0.011,0-0.011,0.01c-6.762,6.184-19.843,21.011-29.946,35.933
		C1.221,216.981,12.144,340.027,89.894,419.016c148.802,151.254,398.938,41.183,398.938-162.851
		C488.831,63.047,268.167-43.896,116.946,69.177z"/>
</g>
<path style="fill:#FF6473;" d="M256,154.527c-22.336,0-43.487,7.086-61.165,20.49c-25.616,19.422-40.308,48.94-40.308,80.983
	c0,55.952,45.521,101.473,101.473,101.473S357.473,311.952,357.473,256S311.952,154.527,256,154.527z M256,271.453
	c-8.521,0-15.453-6.932-15.453-15.453c0-4.885,2.263-9.402,6.209-12.394c2.637-2.001,5.835-3.059,9.244-3.059
	c8.521,0,15.453,6.932,15.453,15.453S264.521,271.453,256,271.453z"/>
<path style="fill:#EC4B62;" d="M327.707,184.293c-8.602,8.602-10.098,21.866-3.991,32.387c17.385,29.955,13.268,69.06-12.353,94.682
	c-25.622,25.622-64.726,29.738-94.682,12.353c-10.521-6.107-23.785-4.61-32.387,3.992l0,0
	c19.404,19.409,46.601,31.025,76.447,29.658c52.069-2.385,94.239-44.554,96.624-96.624
	C358.731,230.896,347.114,203.699,327.707,184.293L327.707,184.293z"/>
<g>
</g>
<g>
</g>
<g>
</g>
<g>
</g>
<g>
</g>
<g>
</g>
<g>
</g>
<g>
</g>
<g>
</g>
<g>
</g>
<g>
</g>
<g>
</g>
<g>
</g>
<g>
</g>
<g>
</g>
</svg>
